<?xml version="1.0" encoding="utf-8"?><svg xmlns="http://www.w3.org/2000/svg" xmlns:xlink="http://www.w3.org/1999/xlink"><symbol viewBox="0 0 67 21" id="balls" xmlns="http://www.w3.org/2000/svg"><path fill-rule="evenodd" clip-rule="evenodd" d="M33.5-.001c5.799 0 10.5 4.701 10.5 10.5C44 16.3 39.299 21 33.5 21 27.7 21 23 16.3 23 10.5S27.7 0 33.5 0zm27 4a6.5 6.5 0 1 1 0 13 6.5 6.5 0 0 1 0-13zM13 10.5a6.5 6.5 0 1 0-13 0 6.5 6.5 0 0 0 13 0z"/></symbol><symbol viewBox="0 0 24 24" id="cross" xmlns="http://www.w3.org/2000/svg"><path d="M16.267 12 23.2 5.067c1.067-1.067 1.067-2.667 0-3.6l-.533-.534C21.6-.133 20-.133 19.067.933L12 7.733 5.067.8C4-.267 2.4-.267 1.333.8L.8 1.333C-.267 2.4-.267 4 .8 4.933L7.733 12 .8 18.933C-.267 20-.267 21.6.8 22.533l.533.667c1.067 1.067 2.667 1.067 3.6 0L12 16.267l6.933 6.933c1.067 1.067 2.667 1.067 3.6 0l.534-.533c1.066-1.067 1.066-2.667 0-3.6L16.267 12z"/></symbol><symbol viewBox="0 0 76 95" id="geo" xmlns="http://www.w3.org/2000/svg"><path d="M38 0C24.783 0 0 10 0 38.333 0 66.667 38 95 38 95s38-28.333 38-56.667C76 10 51.217 0 38 0z"/><path d="M22.767 37.432c-1.008 0-1.896-.176-2.664-.528-.768-.352-1.36-.84-1.776-1.464-.416-.64-.624-1.376-.624-2.208 0-.704.144-1.344.432-1.92a3.703 3.703 0 0 1 1.2-1.368 3 3 0 0 1 1.68-.504c.56 0 1.032.144 1.416.432.384.272.624.656.72 1.152-.832 0-1.496.224-1.992.672-.496.432-.744 1.024-.744 1.776 0 .688.208 1.24.624 1.656.416.416.968.624 1.656.624.848 0 1.544-.28 2.088-.84.56-.576.84-1.296.84-2.16 0-.752-.208-1.464-.624-2.136-.416-.672-1.04-1.488-1.872-2.448-.864-.992-1.52-1.84-1.968-2.544a4.488 4.488 0 0 1-.648-2.352c0-.832.232-1.576.696-2.232.464-.672 1.104-1.2 1.92-1.584.816-.384 1.736-.576 2.76-.576 1.296 0 2.328.304 3.096.912.784.608 1.176 1.424 1.176 2.448 0 .672-.168 1.216-.504 1.632a1.615 1.615 0 0 1-1.32.624c-.608 0-1.096-.248-1.464-.744.304-.224.544-.52.72-.888.176-.368.264-.752.264-1.152 0-.512-.152-.92-.456-1.224-.304-.304-.72-.456-1.248-.456-.64 0-1.168.232-1.584.696-.4.448-.6 1.024-.6 1.728 0 .64.184 1.24.552 1.8.368.544.944 1.248 1.728 2.112.64.688 1.152 1.28 1.536 1.776.4.496.736 1.072 1.008 1.728.288.64.432 1.336.432 2.088a4.78 4.78 0 0 1-.864 2.784c-.56.832-1.336 1.488-2.328 1.968-.976.48-2.064.72-3.264.72zm10.183-.288c-.768 0-1.392-.24-1.872-.72-.464-.48-.696-1.2-.696-2.16 0-.4.064-.92.192-1.56L32.206 25h3.456l-1.728 8.16c-.048.24-.072.464-.072.672 0 .656.24.984.72.984.448 0 .832-.184 1.152-.552.32-.384.576-.904.768-1.56L38.134 25h3.456l-1.728 8.16a2.97 2.97 0 0 0-.096.768c0 .32.072.552.216.696.16.128.416.192.768.192.448 0 .832-.192 1.152-.576.336-.384.6-.896.792-1.536h1.008c-.592 1.728-1.328 2.904-2.208 3.528-.864.608-1.736.912-2.616.912-.688 0-1.24-.192-1.656-.576-.4-.384-.64-.952-.72-1.704-.544.88-1.12 1.48-1.728 1.8-.592.32-1.2.48-1.824.48zM44.323 25h3.456l-.312 1.488c.544-.48 1.032-.848 1.464-1.104a2.855 2.855 0 0 1 1.44-.384c.512 0 .912.176 1.2.528.304.352.456.776.456 1.272 0 .464-.152.872-.456 1.224-.304.352-.728.528-1.272.528-.352 0-.592-.08-.72-.24-.112-.176-.2-.424-.264-.744a2.203 2.203 0 0 0-.144-.456c-.048-.096-.136-.144-.264-.144-.336 0-.624.072-.864.216-.224.128-.52.36-.888.696L45.235 37H41.78l2.544-12zm5.232 18a2.874 2.874 0 0 1-1.968-.744 2.297 2.297 0 0 1-.864-1.848c0-.688.176-1.256.528-1.704a3.84 3.84 0 0 1 1.368-1.08c.56-.256 1.304-.528 2.232-.816l2.904-13.704c.32-1.536.88-2.6 1.68-3.192.816-.592 1.712-.888 2.688-.888.752 0 1.408.248 1.968.744.576.48.864 1.096.864 1.848 0 .368-.024.696-.072.984h-1.128c.032-.352.048-.568.048-.648 0-.256-.088-.456-.264-.6a.99.99 0 0 0-.648-.216c-.336 0-.664.152-.984.456-.32.288-.552.792-.696 1.512L56.803 25h1.752l-.168.96H56.61l-2.76 12.96c-.32 1.552-.872 2.616-1.656 3.192a4.272 4.272 0 0 1-2.64.888zm-.552-2.136c.64 0 1.096-.624 1.368-1.872l.312-1.392c-.848.288-1.496.616-1.944.984-.464.384-.696.88-.696 1.488 0 .192.096.368.288.528a.963.963 0 0 0 .672.264zM13.55 58.144c-1.088 0-1.92-.264-2.496-.792-.576-.544-.864-1.304-.864-2.28 0-.48.056-.936.168-1.368l2.568-12.024 3.552-.48-1.152 5.4c.448-.272.816-.448 1.104-.528.288-.096.576-.144.864-.144 1.888 0 2.832 1.368 2.832 4.104 0 1.104-.216 2.288-.648 3.552a7.44 7.44 0 0 1-2.112 3.216c-.976.896-2.248 1.344-3.816 1.344zm1.344-2.328c.496 0 .96-.304 1.392-.912.432-.624.776-1.392 1.032-2.304.256-.928.384-1.816.384-2.664 0-.64-.112-1.184-.336-1.632-.224-.448-.536-.672-.936-.672-.24 0-.512.04-.816.12-.288.064-.488.168-.6.312l-1.32 6.096a2.275 2.275 0 0 0-.072.552c0 .736.424 1.104 1.272 1.104zm9.632 2.28c-1.184 0-2.12-.304-2.808-.912-.688-.608-1.032-1.568-1.032-2.88 0-1.088.224-2.296.672-3.624a8.473 8.473 0 0 1 2.16-3.432c.992-.976 2.24-1.464 3.744-1.464 2.048 0 3.072 1.28 3.072 3.84v.024a.966.966 0 0 0 .264.024c.528 0 1.136-.136 1.824-.408a9.553 9.553 0 0 0 1.872-1.032l.216.648c-.464.496-1.072.92-1.824 1.272a9.507 9.507 0 0 1-2.424.72c-.128 1.456-.456 2.728-.984 3.816-.528 1.088-1.208 1.928-2.04 2.52-.832.592-1.736.888-2.712.888zm.96-2.16c.384 0 .768-.216 1.152-.648.384-.448.72-1.048 1.008-1.8.288-.768.496-1.616.624-2.544-.432-.096-.648-.432-.648-1.008 0-.656.248-1.088.744-1.296-.032-.528-.112-.888-.24-1.08-.128-.208-.352-.312-.672-.312-.528 0-1.04.384-1.536 1.152-.496.768-.896 1.688-1.2 2.76-.304 1.072-.456 2.016-.456 2.832 0 .768.088 1.288.264 1.56.176.256.496.384.96.384zm8.963 2.208c-.912 0-1.672-.312-2.28-.936-.608-.624-.912-1.6-.912-2.928 0-1.184.232-2.424.696-3.72.48-1.312 1.184-2.416 2.112-3.312.944-.912 2.064-1.368 3.36-1.368.656 0 1.144.112 1.464.336.32.224.48.52.48.888v.168L39.634 46h3.456l-1.728 8.16a2.97 2.97 0 0 0-.096.768c0 .688.328 1.032.984 1.032.448 0 .832-.208 1.152-.624.336-.416.6-.96.792-1.632h1.008c-.592 1.728-1.328 2.904-2.208 3.528-.864.608-1.736.912-2.616.912-.672 0-1.216-.184-1.632-.552-.4-.384-.64-.936-.72-1.656a6.8 6.8 0 0 1-1.56 1.608c-.56.4-1.232.6-2.016.6zm1.56-2.328c.4 0 .792-.184 1.176-.552.4-.384.672-.904.816-1.56l1.152-5.424c0-.208-.08-.408-.24-.6-.16-.208-.408-.312-.744-.312-.64 0-1.216.376-1.728 1.128-.512.736-.912 1.632-1.2 2.688-.288 1.04-.432 1.96-.432 2.76 0 .8.112 1.312.336 1.536.24.224.528.336.864.336zM45.835 46h3.456l-.312 1.488c.544-.48 1.032-.848 1.464-1.104a2.855 2.855 0 0 1 1.44-.384c.512 0 .912.176 1.2.528.304.352.456.776.456 1.272 0 .464-.152.872-.456 1.224-.304.352-.728.528-1.272.528-.352 0-.592-.08-.72-.24-.112-.176-.2-.424-.264-.744a2.203 2.203 0 0 0-.144-.456c-.048-.096-.136-.144-.264-.144-.336 0-.624.072-.864.216-.224.128-.52.36-.888.696L46.747 58h-3.456l2.544-12zm10.272 12.144c-.912 0-1.672-.312-2.28-.936-.608-.624-.912-1.6-.912-2.928 0-1.184.232-2.424.696-3.72.48-1.312 1.184-2.416 2.112-3.312.944-.912 2.064-1.368 3.36-1.368.656 0 1.144.112 1.464.336.32.224.48.52.48.888v.096l1.176-5.52 3.552-.48-2.76 12.96c-.064.24-.096.472-.096.696 0 .64.328.96.984.96.288 0 .544-.048.768-.144-.064.8-.352 1.416-.864 1.848-.496.416-1.088.624-1.776.624-.64 0-1.184-.16-1.632-.48-.432-.336-.72-.84-.864-1.512-.96 1.328-2.096 1.992-3.408 1.992zm1.56-2.328c.352 0 .704-.152 1.056-.456.368-.304.64-.728.816-1.272l.096-.384 1.176-5.496c-.144-.56-.472-.84-.984-.84-.64 0-1.216.376-1.728 1.128-.512.736-.912 1.632-1.2 2.688-.288 1.04-.432 1.96-.432 2.76 0 .8.112 1.312.336 1.536.24.224.528.336.864.336z"/></symbol><symbol viewBox="0 0 28 23" id="length" xmlns="http://www.w3.org/2000/svg"><path d="M11.006 13.095 11.007 9 4 16.01l7.007 7.008v-4.095l9.985.002v4.093L28 16.01 20.992 9v4.095h-9.986z"/></symbol><symbol viewBox="0 0 38 38" id="parameters" xmlns="http://www.w3.org/2000/svg"><g clip-path="url(#ea)"><path d="m18.213.326-6.67 6.67a1.113 1.113 0 0 0 0 1.574l3.15 3.149c.264.263.626.367.968.311v3.63h-3.63a1.113 1.113 0 0 0-.312-.967l-3.149-3.15a1.113 1.113 0 0 0-1.574 0l-6.67 6.67a1.113 1.113 0 0 0 0 1.574l6.67 6.67c.434.434 1.14.434 1.574 0l3.15-3.15c.257-.257.368-.62.31-.967h3.63v3.63a1.111 1.111 0 0 0-.967.311l-3.15 3.15a1.113 1.113 0 0 0 0 1.574l6.67 6.669c.435.435 1.14.435 1.575 0l6.669-6.67a1.114 1.114 0 0 0 0-1.574l-3.15-3.149a1.11 1.11 0 0 0-.967-.311v-3.63h3.63c-.057.348.054.71.312.967l3.149 3.15c.434.434 1.14.434 1.574 0l6.67-6.67a1.113 1.113 0 0 0 0-1.574l-6.67-6.67a1.114 1.114 0 0 0-1.574 0l-3.15 3.15c-.257.258-.368.62-.31.967h-3.63v-3.63c.34.056.703-.047.967-.31l3.149-3.15a1.113 1.113 0 0 0 0-1.574l-6.67-6.67a1.113 1.113 0 0 0-1.574 0zm4.308 9.031-.507-.506c-.698-.699-1.9-.204-1.9.787v7.135c0 .615.498 1.114 1.113 1.114h7.135c.989 0 1.488-1.2.788-1.9l-.507-.507 1.575-1.575L35.313 19l-5.095 5.095-1.575-1.575.507-.506c.698-.699.203-1.9-.788-1.9h-7.135c-.615 0-1.113.498-1.113 1.113v7.135c0 .992 1.202 1.485 1.9.787l.506-.506 1.575 1.575L19 35.312l-5.094-5.095 1.574-1.574.507.506c.698.699 1.9.204 1.9-.787v-7.135c0-.615-.498-1.114-1.113-1.114H9.638c-.988 0-1.487 1.2-.787 1.9l.507.507-1.575 1.575L2.688 19l5.095-5.095 1.575 1.575-.507.506c-.699.7-.203 1.9.787 1.9h7.136c.615 0 1.113-.498 1.113-1.113V9.638c0-.988-1.2-1.488-1.9-.787l-.507.506-1.574-1.574L19 2.688l5.095 5.095-1.574 1.574z"/></g><defs><clipPath id="ea"><path d="M0 0h38v38H0z"/></clipPath></defs></symbol><symbol viewBox="0 0 75 110" id="play" xmlns="http://www.w3.org/2000/svg"><path d="m72.014 61.708-58.159 46.336c-5.56 4.41-13.74.447-13.74-6.647V8.727c0-7.095 8.18-11.058 13.74-6.648l58.16 46.336c4.218 3.387 4.218 9.906 0 13.293z"/></symbol><symbol viewBox="0 0 25 28" id="service" xmlns="http://www.w3.org/2000/svg"><path d="M24 26h-1v-3.273a5.755 5.755 0 0 0-1.903-4.274l-1.693-1.523a1.238 1.238 0 0 1-.414-.93c0-.359.147-.689.414-.929l1.693-1.523A5.76 5.76 0 0 0 23 9.273V6h1a1 1 0 1 0 0-2H8a1 1 0 1 0 0 2h1v3.273c0 1.628.693 3.186 1.903 4.274l1.693 1.523c.267.241.414.571.414.93 0 .359-.147.689-.414.929l-1.693 1.523A5.76 5.76 0 0 0 9 22.727V26H8a1 1 0 1 0 0 2h16a1 1 0 1 0 0-2zm-12-3.171c0-.735.286-1.425.806-1.945l2.664-2.664a.75.75 0 0 1 1.061 0l2.664 2.664c.52.52.806 1.21.806 1.945V26H12v-3.171z"/></symbol><symbol viewBox="0 0 12 16" id="small-play" xmlns="http://www.w3.org/2000/svg"><path d="m11.407 9.429-8.46 6.74c-.808.641-1.998.065-1.998-.967V1.722c0-1.03 1.19-1.607 1.998-.965l8.46 6.74c.614.492.614 1.44 0 1.933z"/></symbol><symbol viewBox="0 0 NaN NaN" id="sprite"/><symbol viewBox="0 0 8 7" id="team-triangle" xmlns="http://www.w3.org/2000/svg"><path d="M4.5 7 .603.25h7.794L4.5 7z"/></symbol><symbol viewBox="0 0 28 28" id="thickness" xmlns="http://www.w3.org/2000/svg"><path d="M26.594 9.484H5.454a1.406 1.406 0 0 0 0 2.813h21.14a1.406 1.406 0 0 0 0-2.813zM27.063 4H4.938a.937.937 0 1 0 0 1.875h22.125a.937.937 0 1 0 0-1.875zm-1.407 19.313H6.391a2.344 2.344 0 1 0 0 4.687h19.265a2.344 2.344 0 1 0 0-4.688zm.469-7.407H5.922a1.875 1.875 0 0 0 0 3.75h20.203a1.875 1.875 0 1 0 0-3.75z"/></symbol><symbol viewBox="0 0 13 16" id="volume" xmlns="http://www.w3.org/2000/svg"><path d="M11.188.766 5.016 5.674a3.132 3.132 0 0 0-1.497-.372 3.158 3.158 0 0 0-3.16 3.16 3.158 3.158 0 0 0 3.16 3.161c.54 0 1.05-.14 1.497-.372l6.172 4.918c.809.641 1.999.065 1.999-.967V1.723c0-1.032-1.19-1.608-1.999-.957z"/></symbol><symbol viewBox="0 0 23 24" id="weight" xmlns="http://www.w3.org/2000/svg"><path d="M22.983 21.137 20.888 8.621a2.447 2.447 0 0 0-2.416-2.043h-3.148c.37-.643.58-1.388.58-2.181A4.401 4.401 0 0 0 11.509 0a4.402 4.402 0 0 0-4.397 4.397c0 .793.211 1.538.58 2.181H4.545a2.447 2.447 0 0 0-2.416 2.044L.034 21.14A2.454 2.454 0 0 0 2.45 24h18.119a2.455 2.455 0 0 0 2.414-2.863zM11.509 2.561c1.011 0 1.835.824 1.835 1.836a1.837 1.837 0 0 1-1.835 1.835 1.838 1.838 0 0 1-1.836-1.835c0-1.013.823-1.836 1.836-1.836z"/></symbol><symbol viewBox="0 0 24 24" id="width" xmlns="http://www.w3.org/2000/svg"><path d="m10.409 17.48-2.896-2.897.002 9.912h9.91l-2.896-2.894 7.062-7.06 2.895 2.895V7.524h-9.913l2.896 2.895-7.06 7.06z"/></symbol></svg>